<svg width="73" height="85" viewBox="0 0 73 85" fill="none" xmlns="http://www.w3.org/2000/svg">
<path d="M11.9883 22.2804C12.0257 22.3265 16.694 28.0712 19.7832 30.2775C22.8813 32.4899 29.4471 34.7554 29.4629 34.7609C29.5065 34.863 35.4806 48.8832 33.0586 61.5138C30.6327 74.1632 20.7678 84.1478 20.7256 84.1906C20.66 84.1522 0.00038726 72.0352 0 51.924C0 31.837 11.9213 22.3336 11.9883 22.2804ZM60.9814 22.2804C61.0362 22.3239 72.9697 31.8267 72.9697 51.924C72.9693 72.0368 52.3065 84.154 52.2441 84.1906C52.1998 84.1457 42.3368 74.1619 39.9111 61.5138C37.4895 48.8856 43.461 34.8682 43.5068 34.7609C43.511 34.7595 50.0857 32.4918 53.1865 30.2775C56.274 28.0725 60.9388 22.3329 60.9814 22.2804ZM48.7578 1.66714C49.996 -0.101156 52.4339 -0.530996 54.2021 0.707175C55.9703 1.94538 56.4002 4.38327 55.1621 6.15151L48.8262 15.1984C52.9414 16.5131 55.7451 17.9318 55.7451 17.9318C55.7044 18.0017 48.8575 29.7189 37.2695 29.7189C25.678 29.7188 17.4318 18.7911 17.3877 18.7326C17.3877 18.7326 20.3169 16.8647 24.6582 15.2619L17.7598 7.04018C16.3722 5.38653 16.5876 2.92092 18.2412 1.53335C19.8948 0.145867 22.3605 0.361304 23.748 2.01479L32.5713 12.5304C32.7472 12.7401 32.8968 12.9635 33.0215 13.1955C34.0587 13.0747 35.116 13.0041 36.1836 13.004C37.6815 13.004 39.1776 13.1192 40.6377 13.3136C40.7111 13.1765 40.7933 13.0418 40.8848 12.9113L48.7578 1.66714Z" fill="white"/>
</svg>
