<svg width="73" height="84" viewBox="0 0 73 84" fill="none" xmlns="http://www.w3.org/2000/svg">
<path fill-rule="evenodd" clip-rule="evenodd" d="M40.5083 41.5148C41.0734 41.17 41.553 40.4478 41.9397 39.6451C47.0289 41.7252 50.6052 46.6401 50.6052 52.372C50.6052 59.9866 44.2937 66.1595 36.5081 66.1595C33.3121 66.1595 30.3645 65.1193 28 63.3662C27.2243 62.999 26.5861 62.6461 26.0639 62.3574C25.2539 61.9096 24.7228 61.6159 24.3902 61.6618C23.4179 61.7959 23.7002 62.6905 23.9567 63.503C24.1309 64.0551 24.2932 64.5693 24.042 64.7814C23.779 65.0034 22.9275 64.1916 21.9325 63.2429C20.5781 61.9515 18.9577 60.4065 18.1937 60.8706C17.5895 61.2376 18.1761 62.2329 18.894 63.4512L18.9473 63.5416C19.2506 64.0567 19.602 64.5811 19.9228 65.0596C20.5747 66.0323 21.0999 66.8159 20.8371 66.9486C20.5195 67.1089 18.3067 65.6152 16.4418 63.5416C15.7221 62.7413 15.0248 61.8738 14.377 61.0677C12.9588 59.3031 11.7773 57.833 11.1141 58.0071C10.3162 58.2166 10.9198 59.8623 11.8066 61.4461C12.2213 62.1867 12.7092 62.9409 13.1316 63.5939C13.7884 64.6092 14.287 65.38 14.1061 65.4746C13.8622 65.6023 11.7152 63.5087 10.2571 60.8706C9.391 59.3035 8.66373 57.5718 8.07496 56.1698C7.43645 54.6494 6.96083 53.5169 6.64765 53.4029C5.55953 53.0069 5.55953 55.2254 5.99594 58.4276C6.05287 58.8453 6.13763 59.2834 6.24201 59.7295C10.4743 73.4233 23.4754 83.3939 38.8576 83.3939C57.6728 83.3939 72.9255 68.4761 72.9255 50.0741C72.9255 32.5595 59.1085 18.2012 41.5537 16.857C41.5758 16.0319 42.0064 14.3957 42.0064 14.3957C42.0064 14.3957 45.1056 6.89746 45.2693 5.29518C45.2802 5.18883 45.2931 5.07327 45.3068 4.9502C45.4999 3.21895 45.859 0 43.0898 0C41.6108 0 40.9231 1.10019 40.1365 2.35847C39.8346 2.84152 39.518 3.34788 39.1366 3.82423C36.3891 7.25521 31.7691 11.5398 29.1496 13.8224C23.6127 18.6471 18.1803 22.6122 15.0121 24.9247L15.0121 24.9247L15.012 24.9248C13.571 25.9766 12.5984 26.6865 12.2974 26.9799C10.0291 29.1911 1.89621 43.8611 1.89621 43.8611C1.89621 43.8611 -0.733883 48.5676 0.200961 49.5221C1.13581 50.4766 3.39017 50.2579 3.39017 50.2579C3.39017 50.2579 33.6759 43.31 36.3875 42.762C37.1175 42.6144 37.6328 42.5293 38.0285 42.464C39.1026 42.2866 39.2955 42.2547 40.5083 41.5148ZM19.0951 32.5862C17.4695 34.1314 14.7733 37.8199 14.7733 37.8199C14.7733 37.8199 19.7841 38.1285 22.5439 35.5053C25.3036 32.882 24.6712 28.4114 24.6712 28.4114C24.6712 28.4114 20.7207 31.0409 19.0951 32.5862Z" fill="white"/>
</svg>
