<svg width="79" height="79" viewBox="0 0 79 79" fill="none" xmlns="http://www.w3.org/2000/svg">
<path d="M37.9809 0.657509C38.4605 -0.21917 39.72 -0.21917 40.1996 0.657509L50.019 18.6106L61.1371 15.388C62.0969 15.1099 62.9849 16.003 62.7016 16.9612L59.4125 28.0755L77.5229 37.9808C78.3998 38.4603 78.3997 39.7199 77.5229 40.1995L59.5766 50.014L62.7016 60.5745C62.9851 61.5329 62.097 62.4258 61.1371 62.1477L50.3227 59.012L40.1996 77.5227C39.72 78.3997 38.4605 78.3997 37.9809 77.5227L27.8569 59.012L17.0434 62.1477C16.0834 62.4261 15.1954 61.533 15.4789 60.5745L18.603 50.014L0.657645 40.1995C-0.219181 39.7199 -0.219249 38.4603 0.657645 37.9808L18.767 28.0755L15.4789 16.9612C15.1956 16.0029 16.0835 15.1097 17.0434 15.388L28.1606 18.6106L37.9809 0.657509ZM40.3051 26.9192C39.8254 26.0426 38.5659 26.0424 38.0864 26.9192L34.1381 34.139L26.9194 38.0872C26.0425 38.5668 26.0425 39.8263 26.9194 40.3059L34.1381 44.2542L38.0864 51.4729C38.566 52.3499 39.8255 52.3499 40.3051 51.4729L44.2543 44.2542L51.4731 40.3059C52.35 39.8264 52.3499 38.5669 51.4731 38.0872L44.2543 34.139L40.3051 26.9192Z" fill="white"/>
</svg>
