<svg width="88" height="94" viewBox="0 0 88 94" fill="none" xmlns="http://www.w3.org/2000/svg">
<path d="M23.0957 0C26.7406 0 29.9442 1.88468 31.7891 4.73145C32.0741 4.70789 32.3622 4.69336 32.6533 4.69336C33.3249 4.69337 33.9812 4.75872 34.6172 4.88086C36.5081 2.84152 39.2096 1.56454 42.21 1.56445C46.4734 1.56445 50.1337 4.14199 51.7207 7.82324C51.7362 7.82317 51.7521 7.82227 51.7676 7.82227C52.5033 7.82229 53.2208 7.89997 53.9131 8.0459C55.5713 6.91726 57.5743 6.25782 59.7314 6.25781C64.2079 6.25781 68.0201 9.09887 69.4648 13.0762C70.2494 13.3455 70.9911 13.7057 71.6777 14.1455C73.2872 13.1147 75.1998 12.5156 77.2529 12.5156C82.9707 12.5158 87.6062 17.1504 87.6064 22.8682V54.4766C87.6064 54.6452 87.5999 54.8131 87.5918 54.9805C87.004 76.546 67.6241 93.8633 43.8027 93.8633C19.6112 93.8631 5.32047e-05 76.0033 0 53.9717C0 43.3367 4.56984 33.6738 12.0186 26.5225C12 36.8902 12.1742 47.6082 12.9814 47.4248C15.1423 46.9323 13.4544 14.8385 13.0586 7.80957C14.1923 3.32174 18.2557 0.00021944 23.0957 0Z" fill="white"/>
</svg>
