<svg width="58" height="78" viewBox="0 0 58 78" fill="none" xmlns="http://www.w3.org/2000/svg">
<path d="M27.0409 0C27.0817 0.035957 34.0631 6.20905 36.0165 14.1748C37.9755 22.164 31.4893 33.0413 39.6298 32.6152C47.7705 32.189 40.6962 19.6377 40.6962 19.6377C40.6962 19.6377 59.1627 29.3437 57.7831 46.3184C56.4035 63.2931 37.5985 67.1523 37.5985 67.1523C37.5985 67.1523 42.5165 63.1152 43.4706 59.627C44.4247 56.1387 42.5722 48.9668 42.5722 48.9668C42.5722 48.9668 41.2295 54.8096 39.1308 56.9688C37.3399 58.8111 35.1454 60.0867 31.998 60.4219C34.571 59.1731 36.3417 56.5702 36.3417 53.5586C36.3417 49.3323 32.8568 45.9064 28.5575 45.9062C24.2581 45.9062 20.7724 49.3322 20.7724 53.5586C20.7724 54.7128 21.0335 55.8067 21.4989 56.7881C18.8097 54.6458 18.3857 51.2119 18.3857 51.2119C18.3785 51.2416 15.3933 63.6855 23.6571 69.543C31.931 75.4074 48.1396 70.3672 48.1396 70.3672C48.1396 70.3672 24.9443 86.6874 7.75674 68.9248C-7.04907 53.6235 3.89249 33.4785 3.89249 33.4785C3.89249 33.4785 3.41986 35.3473 3.41983 37.5166C3.41983 39.6859 4.59561 41.3369 4.59561 41.3369C4.59561 41.3369 8.10437 33.9411 10.8349 30.9336C15.4083 25.8963 22.0343 22.5432 24.6327 19.6377C30.848 12.6875 27.052 0.0368468 27.0409 0Z" fill="white"/>
</svg>
