<svg width="84" height="73" viewBox="0 0 84 73" fill="none" xmlns="http://www.w3.org/2000/svg">
<path d="M26.7277 19.4055C16.3415 20.3758 -2.54707 28.138 0.286174 49.484C3.11942 70.8301 19.1745 73.8901 33.3402 72.7707C47.5059 71.6512 58.84 53.3651 55.0615 56.276C51.2831 59.1868 42.7849 58.2165 42.7849 58.2165C54.4872 52.1005 58.5926 49.6742 62.6168 43.6624C52.5167 46.6886 48.7085 46.895 42.7841 46.5732C64.5043 39.7813 67.914 31.856 73.0062 24.2569C54.5649 32.9648 48.2282 34.6942 41.8405 33.9596C70.5008 21.4093 77.7721 13.8686 83.3939 0C58.9681 12.0764 37.1139 18.4352 26.7277 19.4055Z" fill="white"/>
</svg>
