<svg width="79" height="79" viewBox="0 0 79 79" fill="none" xmlns="http://www.w3.org/2000/svg">
<path fill-rule="evenodd" clip-rule="evenodd" d="M40.1669 77.7284C39.8094 77.738 39.4507 77.7428 39.0909 77.7428C17.5016 77.7428 0 60.3395 0 38.8714C0 17.4033 17.5016 0 39.0909 0C60.6802 0 78.1818 17.4033 78.1818 38.8714C78.1818 49.7186 73.7137 59.5281 66.5077 66.5793C69.6602 67.6724 72.8689 68.5824 75.3705 69.2368C77.0163 69.6674 77.2734 71.7818 75.7086 72.4474C69.1741 75.2268 55.8789 79.605 40.1669 77.7284ZM33.5938 33.3216C33.5938 36.6078 30.8591 39.2718 27.4858 39.2718C24.1125 39.2718 21.3778 36.6078 21.3778 33.3216C21.3778 31.1177 22.6078 29.1936 24.4355 28.1653C24.5407 31.0307 26.91 33.3216 29.8173 33.3216H33.5938ZM49.4744 39.2718C46.1011 39.2718 43.3665 36.6078 43.3665 33.3216H47.1429C50.0503 33.3216 52.4195 31.0307 52.5248 28.1653C54.3524 29.1936 55.5824 31.1177 55.5824 33.3216C55.5824 36.6078 52.8478 39.2718 49.4744 39.2718Z" fill="white"/>
</svg>
