<svg width="65" height="70" viewBox="0 0 65 70" fill="none" xmlns="http://www.w3.org/2000/svg">
<path d="M62.7634 -1.12101e-06C62.7634 -1.12101e-06 70.9027 43.9803 55.5612 59.3224C42.3282 72.5553 26.5322 72.2738 14.4046 63.9124L24.9947 50.8958L43.7896 46.8313L28.4473 45.2942L38.1977 35.3505L49.2959 32.9157L40.5199 30.3117L49.2959 14.4536L36.8125 28.4783L31.9919 21.6648L33.6892 32.915L24.9947 42.7337L20.964 30.3117V46.8306L10.0039 60.3761C9.63435 60.0329 9.26879 59.6825 8.90937 59.3231C-3.6112 46.8025 -3.08757 25.078 11.4471 12.6036C25.9722 0.137718 62.7139 0.000178271 62.7634 -1.12101e-06Z" fill="white"/>
</svg>
