<svg width="79" height="58" viewBox="0 0 79 58" fill="none" xmlns="http://www.w3.org/2000/svg">
<path d="M26.2296 17.1328C26.9565 17.1328 27.4625 17.8546 27.215 18.5381L13.4142 56.6416C13.264 57.0564 12.87 57.3329 12.4289 57.333H1.04898C0.317471 57.3327 -0.189088 56.6021 0.0675345 55.917L14.34 17.8135C14.4933 17.4043 14.8845 17.133 15.3214 17.1328H26.2296ZM57.9875 0C58.4334 0 58.8309 0.282072 58.9777 0.703125L78.1584 55.7168C78.3958 56.3981 77.8897 57.1104 77.1681 57.1104H17.5744C17.2572 57.1101 17.0352 56.7962 17.1408 56.4971L36.8878 0.698242C37.036 0.279776 37.4322 0.000137387 37.8761 0H57.9875Z" fill="white"/>
</svg>
