<svg width="104" height="106" viewBox="0 0 104 106" fill="none" xmlns="http://www.w3.org/2000/svg">
<path fill-rule="evenodd" clip-rule="evenodd" d="M78.5345 8.0837L78.8607 36.7289L53.876 48.7226L53.568 21.6762L78.5345 8.0837Z" fill="white"/>
<path fill-rule="evenodd" clip-rule="evenodd" d="M103.58 53.2214L78.8472 67.3685L54.0994 53.199L78.8344 40.2064L103.58 53.2214Z" fill="white"/>
<path fill-rule="evenodd" clip-rule="evenodd" d="M49.7001 53.2214L24.9669 67.3685L0.21917 53.199L24.9542 40.2064L49.7001 53.2214Z" fill="white"/>
<path fill-rule="evenodd" clip-rule="evenodd" d="M24.6892 7.9663L50.3603 20.6803L49.704 48.3869L25.4656 36.3825L24.6892 7.9663Z" fill="white"/>
<path fill-rule="evenodd" clip-rule="evenodd" d="M79.2331 98.0429L53.5619 85.3289L54.2182 57.6223L78.4566 69.6267L79.2331 98.0429Z" fill="white"/>
<path fill-rule="evenodd" clip-rule="evenodd" d="M25.5758 98.3007L25.2495 69.6555L50.2343 57.6617L50.5423 84.7082L25.5758 98.3007Z" fill="white"/>
</svg>
