<svg width="79" height="79" viewBox="0 0 79 79" fill="none" xmlns="http://www.w3.org/2000/svg">
<path d="M39.0908 0C60.68 0 78.1814 15.447 78.1816 34.502C78.1816 44.646 73.2213 53.7672 65.3252 60.0801C65.6559 61.4337 65.8379 62.8789 65.8379 64.3809C65.8379 72.0027 61.232 78.1813 55.5508 78.1816C52.185 78.1816 49.1971 76.0127 47.3203 72.6602C45.4435 76.0126 42.4566 78.1816 39.0908 78.1816C35.3978 78.1816 32.1611 75.5702 30.3467 71.6494C28.5322 75.5701 25.2955 78.1816 21.6025 78.1816C15.9213 78.1813 11.3154 72.0027 11.3154 64.3809C11.3154 62.619 11.5641 60.9349 12.0127 59.3857C4.60858 53.1075 0 44.2797 0 34.502C0.000249929 15.447 17.5017 4.36765e-05 39.0908 0ZM38.5762 17.6699C25.7932 17.6701 15.4307 25.5125 15.4307 35.1865C15.4307 44.8606 25.7932 52.7029 38.5762 52.7031C51.3593 52.7031 61.7227 44.8607 61.7227 35.1865C61.7226 25.5124 51.3593 17.6699 38.5762 17.6699Z" fill="white"/>
</svg>
