<svg width="68" height="73" viewBox="0 0 68 73" fill="none" xmlns="http://www.w3.org/2000/svg">
<path fill-rule="evenodd" clip-rule="evenodd" d="M62.4126 60.5968C62.4126 60.5968 53.2116 67.9763 34.9019 64.9224C21.0105 62.6055 13.6016 47.2924 13.6016 39.0615C13.6016 19.5463 28.0453 15.1053 37.8102 15.1053C47.5751 15.1053 53.9453 24.6256 53.9453 31.9967C53.9453 39.3678 48.7319 45.8149 40.6188 45.8149C32.5057 45.8149 30.1029 40.1192 30.1029 34.8827C30.1029 29.6462 34.3396 27.8013 38.2034 27.8013C42.0671 27.8013 43.3902 31.1 43.3902 33.9352C43.3902 36.7704 41.1904 37.7857 39.3556 37.7857C37.5208 37.7857 37.3393 36.8601 36.6371 35.8873C35.9349 34.9146 37.5328 31.2324 34.9019 31.2324C32.271 31.2324 31.7806 35.4655 31.7806 35.4655C31.7806 35.4655 32.7397 43.6365 40.6188 43.4954C48.4979 43.3544 52.2357 37.2632 51.1495 31.2324C50.0632 25.2016 44.2104 18.7933 33.9385 20.0882C23.6665 21.3831 19.4726 31.7619 21.3212 42.8534C23.1699 53.9448 36.4573 60.3713 46.9047 58.0592C57.3522 55.7472 67.7576 48.1837 67.7576 29.0072C67.7576 9.8308 51.1495 -1.696 31.3457 0.203679C11.542 2.10336 -0.751221 19.417 0.0356558 40.2198C0.822532 61.0227 20.5619 72.3524 37.2536 72.9364C53.9453 73.5204 64.178 63.858 64.178 63.858C64.178 63.858 66.4793 61.8059 65.577 60.2034C64.6747 58.6009 62.4126 60.5968 62.4126 60.5968Z" fill="white"/>
</svg>
