<svg width="73" height="58" viewBox="0 0 73 58" fill="none" xmlns="http://www.w3.org/2000/svg">
<path d="M52.0869 31.4277C52.5234 31.1291 53.12 31.2438 53.415 31.6826L60.1494 41.7041C60.4362 42.1311 60.332 42.709 59.9141 43.0088L40.3359 57.0518C40.0893 57.2287 39.7728 57.2771 39.4844 57.1826L22.5527 51.6367L52.0869 31.4277ZM54.2266 0.130859C54.8081 0.130859 55.2544 0.647525 55.1689 1.22266L51.5732 25.3467C51.5344 25.6072 51.3896 25.8405 51.1729 25.9902L16.3252 50.0479C16.0806 50.2166 15.7708 50.2613 15.4883 50.1689L0.65625 45.3193C0.264846 45.1914 0 44.8259 0 44.4141V29.1797C4.24637e-05 28.958 0.0772887 28.743 0.21875 28.5723L23.5098 0.475586C23.6906 0.257397 23.9598 0.130859 24.2432 0.130859H54.2266ZM61.79 0C62.2053 0 62.578 0.269127 62.7031 0.665039L72.7705 32.542C72.8902 32.9209 72.7623 33.3345 72.4492 33.5791L65.9912 38.6211C65.5682 38.9514 64.9555 38.867 64.6377 38.4346L56.5703 27.4463C56.4174 27.2381 56.3558 26.9763 56.3994 26.7217L60.8467 0.791016C60.9251 0.334166 61.3265 0.000119187 61.79 0Z" fill="white"/>
</svg>
