<svg width="79" height="68" viewBox="0 0 79 68" fill="none" xmlns="http://www.w3.org/2000/svg">
<path d="M57.7353 0C58.4281 0 59.0688 0.36916 59.4159 0.96875L77.914 32.9248C78.2624 33.5268 78.2627 34.2693 77.914 34.8711L59.4159 66.7891C59.0687 67.3882 58.4288 67.7578 57.7362 67.7578H20.6444C19.9552 67.7578 19.3171 67.3925 18.9687 66.7979L0.266516 34.8789C-0.0884228 34.2732 -0.088928 33.523 0.265539 32.917L18.9696 0.960938C19.3179 0.366029 19.9551 0.000154647 20.6444 0H57.7353ZM39.0907 15.6367C29.0157 15.6368 20.8485 23.8039 20.8485 33.8789C20.8486 43.9538 29.0158 52.1211 39.0907 52.1211C49.1657 52.1211 57.3329 43.9539 57.3329 33.8789C57.3329 23.8039 49.1657 15.6367 39.0907 15.6367Z" fill="white"/>
</svg>
